<svg xmlns="http://www.w3.org/2000/svg" viewBox="0 0 228 30"><path d="M101.35 29.7v-.38h.6c2.03-.06 3.85-.43 2.2-1.88l-.12-.1-9.23-7.92-9.42 7.92c-1.8 1.5-.13 1.9 1.88 1.97l.3.01H88v.38H26.5v-.38c1.9 0 4.54-.38 4.7-2.22V11.67c-.3-1.12-1.32-2.45-4.28-2.54H8.57v8.43h13.94c3.7 0 4.53-1.04 4.58-1.79v-.06h.72v4.9h-.72c0-.73-.75-1.79-4.29-1.84H8.57v8.15c0 1.93 2.52 2.38 4.47 2.4h.18v.38H0v-.38c1.9 0 4.54-.38 4.7-2.22l.01-.18V10.64c0-1.93-2.58-2.38-4.53-2.4H0v-.38h39.71v.38c-1.9 0-4.48.39-4.63 2.22l-.01.18v17.8h13.22c2.7 0 4.32-.87 5.23-1.78V10.64c0-1.93-2.58-2.38-4.53-2.4h-.18v-.38h36.77l10.47 8.95 7.78-6.58c1.73-1.43.24-1.87-1.65-1.97h-.29l-.14-.01-.3-.01h-.3v-.38h13.55a4.98 4.98 0 01-.08-2.43c.22-1.01.13-2.05.13-3.07 0-.5.1-.96.28-1.42.37-.9 1.09-1.18 1.96-.74.92.47 1.61 1.21 2.26 1.99.97 1.16 2 2.27 2.72 3.62.08.14.14.29.21.43.07.15.16.3-.04.42-.17.1-.34.22-.55.07-.23-.16-.36-.38-.5-.6-1-1.58-2.16-3.02-3.51-4.31-.37-.36-.81-.87-1.34-.62-.5.23-.47.89-.51 1.4-.02.35 0 .7 0 1.04.04.8-.01 1.61-.11 2.42a5.16 5.16 0 00.68 3.18c.41.74.87 1.46 1.13 2.27l.05.17c.1.28.16.58-.14.75-.42.23-.72-.14-.88-.45a19.91 19.91 0 01-1.66-3.74h-.37c-1.88 0-5.15.28-7.2 1.8l-.26.19-9.35 7.92 10.73 9.19c1.56 1.3 3.98 1.77 5.91 1.92a3.2 3.2 0 001.72-.37l.11-.06.12-.07c2.49-1.45 4.9-2.63 7.73-3.21 2.16-.45 4.3-1.03 6.27-1.97 2.36-1.11 4.1-2.84 4.5-5.62.2-1.39.2-2.7-.3-4.02l-.04-.07c-.17-.11-.3-.11-.37-.2-.13-.16-.8 0-1.27 0-.48 0-.58-.49-.47-.77.04-.1.1-.18.16-.26a.37.37 0 01-.03-.2c.02-.32.36-.41.67-.4.69.03 1.23.27 1.6.9 1 1.74 1.07 3.56.8 5.48-.3 2.05-1.44 3.49-2.92 4.75l-.24.2-.15.12v3.33h6.86c9.5 0 14.2-2.9 14.2-8.07 0-5.07-4.55-7.91-13.39-8h-7.06l.02.1c.03.29-.07.51-.33.6-.2.08-.33-.05-.43-.2l-.1-.15a1.29 1.29 0 01-.15-.38l-.02-.07a3.86 3.86 0 00-2.93-2.9l-.6-.15-2.54-.42c-.23-.07-.45-.19-.43-.44.03-.25.3-.32.55-.35 1.44-.19 3.58.46 5.06 1.48h8.92c9.41 0 15.93 2.4 18.45 6.6.3-.57.66-1.1 1.1-1.62 1.4-1.66 3.49-2.96 6.28-3.9 2.8-.96 6.2-1.43 10.2-1.43 4.02 0 7.42.47 10.21 1.42 2.8.95 4.88 2.25 6.25 3.91.2.25.4.5.57.76 2.9-3.84 9.15-6.04 16.9-6.04 8.85 0 15.7 2.85 17.27 6.99l.07.2h-6.45c-1.57-2.59-5.31-4.19-10.84-4.19-7.06 0-12.45 2.92-12.45 8.2 0 5.31 5.35 8.22 12.7 8.22 6.54 0 10.94-2.14 11.23-5.55l.01-.2h-10.3v-2.71h16.38V21c0 5.51-7.22 8.99-17.33 8.99-8.24 0-14.55-2.3-17.35-6.22l-.44.59c-1.4 1.73-3.48 3.09-6.25 4.08-2.77 1-6.16 1.5-10.17 1.5-4.02 0-7.42-.5-10.21-1.5-2.8-1-4.89-2.35-6.28-4.08a9.98 9.98 0 01-1-1.49c-2.42 4.25-8.87 6.73-18.47 6.82h-14v-3.67c-.88.26-1.77.47-2.67.68-1.97.44-3.73 1.3-5.48 2.26l-.43.24-.44.24-.44.25h-15.05zm74.47-20.78c-2.75 0-5.1.4-7.07 1.19a9.8 9.8 0 00-4.48 3.34 8.58 8.58 0 00-1.54 5.1c0 1.97.51 3.71 1.54 5.22a9.83 9.83 0 004.48 3.5c1.96.82 4.32 1.23 7.07 1.23 2.74 0 5.1-.41 7.06-1.23a9.83 9.83 0 004.48-3.5 9.05 9.05 0 001.54-5.21c0-1.97-.51-3.67-1.54-5.11a9.8 9.8 0 00-4.48-3.34 18.94 18.94 0 00-7.06-1.19zm-93.63.21H57.38v8.2h14.13c3.7 0 4.54-1.05 4.58-1.8v-.06h.72v4.9h-.72c0-.73-.74-1.79-4.28-1.84H57.38v9.9h22.98c.61-.23 1.2-.53 1.7-.9l.25-.2 10.92-9.25-9.09-7.85a6.95 6.95 0 00-1.95-1.1zm46.47 2.11l.09.04c.12.06.22.1.35.1.53-.07.77.28.91.7.14.42-.06.77-.42 1-.93.57-1.95.75-3.05.52l-.13-.05-.26-.1a3.95 3.95 0 01-.4-.18c-.76-.42-.81-1.35-.04-1.74.93-.48 1.92-.73 2.95-.29zm-.86.47h-.09c-.66.09-1.31.26-2.02.68l.28.08.26.08c.5.13.95.2 1.43.16l.16-.02.06-.01.07-.02h.05c.11-.05.18-.12.07-.29a.34.34 0 01-.04-.17v-.06l.01-.14v-.05c0-.15-.06-.26-.33-.23zM122.63.62c.69.84.92 1.86 1.1 2.9.06.29.1.59.12.78v.23c0 .22-.02.54-.2.58-.27.07-.32-.27-.38-.46-.23-.79-.4-1.59-.63-2.38-.1-.31-.14-.8-.47-.84-.3-.03-.38.46-.51.74-.16.33-.26.68-.38 1.02-.08.2-.19.39-.43.36a.41.41 0 01-.36-.5c.17-.96.52-1.86 1.22-2.58.33-.34.66-.17.92.15z" fill="#000" fill-rule="nonzero"/></svg>