<svg xmlns="http://www.w3.org/2000/svg" viewBox="0 0 165 69"><path d="M98.26 18.22h20.66c28.42 0 45.44 9.49 45.44 25.22 0 15.65-16.68 25.18-45.55 25.37H86.68v-8.5c-2.05.59-4.12 1.1-6.21 1.57-4.55 1.02-8.63 3-12.68 5.23l-1.01.56-1.02.57c-2.13.76-3.3.95-3.54.57-.24-.38.37-1.05 1.82-2.03l.26-.15c5.77-3.35 11.38-6.1 17.91-7.44 5-1.03 9.95-2.39 14.53-4.56 5.46-2.58 9.49-6.57 10.43-13.03.47-3.21.45-6.27-.71-9.3l-.07-.17c-.4-.25-.7-.25-.87-.47-.3-.37-1.86 0-2.95 0-1.1 0-1.34-1.12-1.08-1.76.1-.23.22-.43.37-.62a.89.89 0 01-.08-.46c.06-.74.85-.96 1.57-.93 1.58.08 2.84.62 3.7 2.11 2.33 4 2.47 8.22 1.84 12.69-.67 4.73-3.33 8.06-6.75 10.98l-.55.46-.35.28v7.73h15.89c22 0 32.9-6.72 32.9-18.7 0-11.8-10.67-18.41-31.38-18.54h-15.99l.03.22c.08.68-.16 1.21-.76 1.42-.48.17-.77-.12-1-.46l-.22-.36a2.99 2.99 0 01-.36-.9l-.03-.15a8.95 8.95 0 00-6.8-6.73c-.57-.11-.8-.2-1.37-.34l-5.9-.96c-.53-.16-1.04-.44-.99-1.03.05-.57.68-.73 1.26-.81 3.33-.43 8.3 1.07 11.74 3.42zm-37.6-.62c-.36-1.66-.4-3.33-.04-5 .51-2.36.31-4.76.3-7.14 0-1.15.23-2.22.66-3.27C62.43.1 64.08-.55 66.1.47c2.15 1.08 3.74 2.8 5.25 4.6l.45.54.9 1.06c1.82 2.14 3.62 4.29 4.95 6.78.18.33.32.68.48 1.02l.04.07.06.15c.12.27.17.54-.19.75-.4.23-.79.5-1.29.14-.52-.36-.83-.88-1.15-1.39-2.32-3.64-5-7-8.13-9.97-.87-.83-1.88-2.02-3.1-1.45-1.14.53-1.1 2.06-1.18 3.27-.06.8-.01 1.6-.01 2.39a32.6 32.6 0 01-.25 5.6 11.3 11.3 0 00.28 4.18h9.24l.3 1.83 1.21 7.62-1.51.08c-.45-2.73-2.66-6.46-10.38-6.59H19.86V40.7h32.28c8.66 0 10.56-2.46 10.61-4.2v-.09h1.67v11.36h-1.67c0-1.72-1.76-4.21-10.2-4.29H19.84v18.9c0 4.53 6 5.53 10.53 5.57h.24v.87H0v-.87c4.47 0 10.7-.92 10.9-5.33l.01-.23V24.65c0-4.53-6.14-5.53-10.67-5.56H0v-.88h60.81l-.14-.61zm32.49 8.45l.2.09c.28.13.5.24.83.2 1.22-.14 1.78.66 2.1 1.63.33 1-.15 1.8-.97 2.32a9.4 9.4 0 01-7.07 1.23l-.3-.12-.6-.25c-.32-.12-.63-.26-.92-.41-1.77-.96-1.9-3.13-.11-4.04 2.16-1.1 4.46-1.69 6.84-.65zm-2.2 1.1c-1.54.19-3.05.59-4.67 1.55l.65.2c1.38.4 2.61.68 3.9.54l.38-.05.14-.02.14-.03c.34-.07.57-.22.3-.68a.78.78 0 01-.1-.4v-.14l.02-.31c.01-.4-.06-.75-.75-.66zM79.19 1.45c1.6 1.94 2.14 4.3 2.56 6.69.13.68.2 1.38.27 1.82V10.42a3 3 0 010 .08c-.01.51-.04 1.24-.47 1.35-.62.14-.75-.64-.87-1.07l-.38-1.38-.72-2.76c-.12-.46-.24-.92-.38-1.37-.21-.73-.31-1.87-1.07-1.95-.69-.07-.88 1.07-1.19 1.72-.36.75-.6 1.56-.89 2.35-.17.47-.42.9-.98.82a.95.95 0 01-.83-1.13c.39-2.24 1.19-4.33 2.81-5.99.78-.8 1.53-.4 2.14.35z" fill="#000" fill-rule="nonzero"/></svg>