<?xml version="1.0" encoding="UTF-8"?>
<svg width="890px" height="90px" viewBox="0 0 890 90" version="1.1" xmlns="http://www.w3.org/2000/svg" xmlns:xlink="http://www.w3.org/1999/xlink">
    <title>Oval</title>
    <g id="Desktop-/-Product-Detail" stroke="none" stroke-width="1" fill="none" fill-rule="evenodd">
        <g id="Product-Detail-v2" transform="translate(-47.000000, -1264.000000)" stroke="#000000" stroke-width="1.5">
            <g id="Left-Part" transform="translate(48.000000, 178.000000)">
                <g id="Highlighted-Info" transform="translate(0.000000, 1087.000000)">
                    <path d="M381.40812,88 C380.000139,87.7878538 378.459421,87.8626449 376.969855,87.8549695 C370.824142,87.8236429 364.670334,87.9149452 358.531743,87.7909775 C345.437745,87.5266204 332.313313,87.3765919 319.255574,86.9732732 C314.338162,86.8213704 309.401972,86.707845 304.465458,86.6107415 C296.192395,86.4479503 287.998326,86.0970211 279.791308,85.7965178 C267.104584,85.3320632 254.454768,84.7832677 241.822758,84.2138555 C218.655656,83.1698143 195.718091,81.820718 172.95794,80.2314513 C154.265038,78.9261766 135.65016,77.5541432 117.353203,75.8673267 C93.3644272,73.655812 70.2070372,70.930934 48.5129893,67.3239133 C34.894842,65.059563 23.0679939,62.221695 13.6679629,58.6594776 C6.42927531,55.9164819 1.63067844,52.869056 0.432486088,49.4917637 C-1.05448972,45.2990875 1.18617206,41.2695595 8.8175663,37.522774 C17.0627873,33.4745036 28.0420624,30.0784689 40.652705,27.0496069 C52.4203072,24.2231628 65.5819694,21.9522972 79.0142851,19.7989733 C97.1189359,16.8964886 115.955905,14.3941097 135.397313,12.2544409 C148.605271,10.8009227 162.113344,9.56874344 175.725664,8.42750942 C200.701224,6.33389343 226.086002,4.7389147 251.835968,3.55930337 C266.818067,2.87288507 281.841606,2.2695581 296.890073,1.71540763 C304.143005,1.44837297 311.451946,1.28852703 318.747937,1.12038087 C331.950068,0.816307648 345.150256,0.49322427 358.372136,0.271796133 C368.376928,0.104185474 378.412801,0.0231468814 388.436695,0.00850995493 C405.801905,-0.0168369178 423.169381,0.0177919083 440.534267,0.0681286555 C452.603278,0.10311448 464.616606,0.430928083 476.64871,0.670920128 C489.432558,0.925816848 502.11054,1.4140119 514.806976,1.85383369 C524.726623,2.19735521 534.565333,2.71518111 544.453253,3.13206577 C550.103631,3.37036207 555.644259,3.73726698 561.175175,4.12291429 C565.580418,4.4302005 570.120663,4.48410723 574.605224,4.61851705 C591.947772,5.13821719 609.211972,5.79982412 626.425344,6.5805792 C644.17031,7.38543165 661.799051,8.34415034 679.296674,9.48118963 C706.690958,11.2611827 733.600914,13.4892085 759.898986,16.2609426 C784.712025,18.8762222 808.811846,21.9083865 831.324329,25.8231395 C842.273172,27.7271002 852.719881,29.8380306 862.193403,32.2804339 C869.061723,34.0512342 875.225566,36.0011584 880.201253,38.2160645 C884.708477,40.2223945 887.561994,42.3929436 887.960204,44.75529 C888.323774,46.9107559 886.17538,48.9047694 882.368748,50.8031966 C874.226803,54.8633372 861.989118,57.7330673 847.958516,60.1416449 C829.754474,63.2668072 810.230187,65.6273686 790.413555,67.8229076 C748.06372,72.5148458 704.713179,76.3635542 660.517979,79.4982662 C636.515282,81.2007014 612.304092,82.6428849 587.903508,83.8262447 C572.752089,84.560947 557.505488,85.1461563 542.256945,85.7214589 C529.666374,86.1965343 517.016558,86.5034635 504.390699,86.8751879 C496.901431,87.095545 489.35842,87.1828311 481.834834,87.3075127 C471.623813,87.4769084 461.413116,87.6610302 451.192383,87.7700039 C443.435375,87.852649 435.66315,87.8221256 427.898695,87.856219 C426.421108,87.8627342 424.871973,87.7654522 423.481798,88 L381.40812,88 Z" id="Oval"></path>
                </g>
            </g>
        </g>
    </g>
</svg>