<?xml version="1.0" encoding="UTF-8"?>
<svg width="345px" height="118px" viewBox="0 0 345 118" version="1.1" xmlns="http://www.w3.org/2000/svg" xmlns:xlink="http://www.w3.org/1999/xlink">
    <title>Oval</title>
    <g id="Mobile-/-Product-Detail" stroke="none" stroke-width="1" fill="none" fill-rule="evenodd">
        <g id="Product-Detail" transform="translate(-15.000000, -990.000000)" stroke="#000000" stroke-width="1.5">
            <g id="Highlighted-Info" transform="translate(16.000000, 991.000000)">
                <path d="M147.323181,116 C146.779333,115.720353 146.184213,115.818941 145.608852,115.808823 C143.235001,115.767529 140.858023,115.887882 138.486923,115.72447 C133.429219,115.376 128.35976,115.178235 123.316061,114.646587 C121.416655,114.446352 119.509996,114.296705 117.603212,114.168705 C114.407648,113.954116 111.242597,113.491528 108.072543,113.09541 C103.172154,112.483174 98.2860196,111.759762 93.4067635,111.009173 C84.4582093,109.632937 75.5983165,107.854583 66.8069519,105.75964 C59.5866082,104.039051 52.3964019,102.230462 45.3289961,100.006931 C36.0630614,97.0917522 27.1182587,93.4998675 18.7386884,88.7451585 C13.4785257,85.760333 8.91027243,82.019507 5.27940459,77.3238569 C2.48337999,73.7080898 0.62986791,69.6910283 0.167052622,65.239143 C-0.407308529,59.7124335 0.458172317,54.4007829 3.40588428,49.4618385 C6.59069373,44.125482 10.8315624,39.6488909 15.7025651,35.6563 C20.247934,31.9305328 25.3317742,28.9371191 30.5201574,26.0986466 C37.5132827,22.2726441 44.7892742,18.9740537 52.2987368,16.1535812 C57.4004594,14.23758 62.6181046,12.6133436 67.8760164,11.1089897 C77.5231079,8.34922316 87.3282643,6.24675119 97.2744787,4.69180899 C103.061483,3.78698486 108.864494,2.99169022 114.677134,2.26121915 C117.478661,1.90921892 120.301822,1.6985129 123.11998,1.47686569 C128.219452,1.0760419 133.318173,0.650159265 138.425273,0.35827672 C142.289737,0.137335398 146.166206,0.0305117982 150.038048,0.0112176679 C156.745556,-0.0221941189 163.453939,0.02345297 170.161321,0.089805955 C174.823113,0.135923632 179.463396,0.568041564 184.110932,0.884394714 C189.048837,1.22039494 193.945851,1.86392477 198.849992,2.44368986 C202.681567,2.89651369 206.48188,3.57910237 210.3012,4.12863215 C212.483723,4.44275 214.623852,4.92639738 216.760231,5.43475065 C218.461805,5.83980974 220.215526,5.91086862 221.947739,6.0880452 C228.646493,6.77310448 235.314985,7.6452227 241.963843,8.67439985 C248.818037,9.73534172 255.627336,10.9991073 262.38599,12.4979318 C272.967341,14.8442863 283.361614,17.7812294 293.519541,21.4348788 C303.103856,24.8822929 312.412684,28.8792367 321.108384,34.039593 C325.337498,36.5493594 329.372657,39.3319495 333.031911,42.551481 C335.684877,44.8857178 338.065731,47.4560725 339.987646,50.3757215 C341.728612,53.0204291 342.830815,55.8816074 342.984628,58.9956095 C343.125061,61.8369055 342.29522,64.4653778 340.824865,66.96785 C337.679947,72.3198536 332.953004,76.1026796 327.533526,79.2776229 C320.50201,83.397155 312.960534,86.5088041 305.306137,89.4029236 C288.948036,95.5877513 272.203401,100.661049 255.132508,104.793169 C245.861196,107.037288 236.509351,108.938348 227.084351,110.498232 C221.231944,111.466703 215.342773,112.238115 209.452851,112.996469 C204.589602,113.622704 199.703468,114.027293 194.826588,114.517293 C191.933773,114.807764 189.0202,114.922823 186.114131,115.087176 C182.170009,115.31047 178.226012,115.553176 174.278139,115.696823 C171.281907,115.805765 168.279798,115.765529 165.28069,115.81047 C164.709955,115.819059 164.111584,115.690823 163.574613,116 L147.323181,116 Z" id="Oval"></path>
            </g>
        </g>
    </g>
</svg>